HIERARCHY
ROOT Beta:Hips
{
	OFFSET 0.00 0.00 0.00
	CHANNELS 6 Xposition Yposition Zposition Yrotation Xrotation Zrotation
	JOINT Beta:Spine
	{
		OFFSET	0.0000	9.2263	1.5771
		CHANNELS 3 Xrotation Yrotation Zrotation
		JOINT Beta:Spine1
		{
			OFFSET	0.0000	16.2540	-0.1656
			CHANNELS 3 Xrotation Yrotation Zrotation
			JOINT Beta:Spine2
			{
				OFFSET	0.0000	13.6396	-1.2923
				CHANNELS 3 Xrotation Yrotation Zrotation
				JOINT Beta:Neck
				{
					OFFSET	0.0000	13.8774	-4.3542
					CHANNELS 3 Xrotation Yrotation Zrotation
					JOINT Beta:Neck1
					{
						OFFSET	0.0000	4.3400	0.9269
						CHANNELS 3 Xrotation Yrotation Zrotation
						JOINT Beta:Head
						{
							OFFSET	0.0000	4.0266	0.8585
							CHANNELS 3 Xrotation Yrotation Zrotation
							End Site
							{
								OFFSET 0.0000 23.0297 0.1231
							}
						}
					}
				}
				JOINT Beta:LeftShoulder
				{
					OFFSET	6.1442	10.1870	-3.7932
					CHANNELS 3 Zrotation Xrotation Yrotation
					JOINT Beta:LeftArm
					{
						OFFSET	12.3191	-1.1130	-1.7935
						CHANNELS 3 Zrotation Xrotation Yrotation
						JOINT Beta:LeftForeArm
						{
							OFFSET	27.6870	0.0000	0.0000
							CHANNELS 3 Xrotation Zrotation Yrotation
							JOINT Beta:LeftHand
							{
								OFFSET	27.8738	0.0000	0.0000
								CHANNELS 3 Zrotation Yrotation Xrotation
								JOINT Beta:LeftHandThumb1
								{
									OFFSET	2.3785	-1.0029	2.6209
									CHANNELS 3 Zrotation Xrotation Yrotation
									JOINT Beta:LeftHandThumb2
									{
										OFFSET	3.3624	-1.0029	2.8398
										CHANNELS 3 Zrotation Xrotation Yrotation
										JOINT Beta:LeftHandThumb3
										{
											OFFSET	4.5018	-1.3445	2.1783
											CHANNELS 3 Zrotation Xrotation Yrotation
											End Site
											{
												OFFSET 2.6000 -1.0000 1.0000
											}
										}
									}
								}
								JOINT Beta:LeftHandMiddle1
								{
									OFFSET	10.4639	0.6148	0.4298
									CHANNELS 3 Zrotation Xrotation Yrotation
									JOINT Beta:LeftHandMiddle2
									{
										OFFSET	5.7921	0.0000	0.0000
										CHANNELS 3 Zrotation Xrotation Yrotation
										JOINT Beta:LeftHandMiddle3
										{
											OFFSET	3.7132	0.0000	0.0000
											CHANNELS 3 Zrotation Xrotation Yrotation
											End Site
											{
												OFFSET 2.3000 0.0000 0.0000
											}
										}
									}
								}
								JOINT Beta:LeftHandIndex1
								{
									OFFSET	10.3945	0.6148	2.7055
									CHANNELS 3 Zrotation Xrotation Yrotation
									JOINT Beta:LeftHandIndex2
									{
										OFFSET	5.5493	0.0000	0.0000
										CHANNELS 3 Zrotation Xrotation Yrotation
										JOINT Beta:LeftHandIndex3
										{
											OFFSET	3.3911	0.0000	0.0000
											CHANNELS 3 Zrotation Xrotation Yrotation
											End Site
											{
												OFFSET 2.5000 0.0000 0.0000
											}
										}
									}
								}
								JOINT Beta:LeftHandRing1
								{
									OFFSET	10.3252	0.3211	-1.8755
									CHANNELS 3 Zrotation Xrotation Yrotation
									JOINT Beta:LeftHandRing2
									{
										OFFSET	5.4452	0.0000	0.0000
										CHANNELS 3 Zrotation Xrotation Yrotation
										JOINT Beta:LeftHandRing3
										{
											OFFSET	3.7132	0.0000	0.0000
											CHANNELS 3 Zrotation Xrotation Yrotation
											End Site
											{
												OFFSET 2.0000 0.0000 0.0000
											}
										}
									}
								}
								JOINT Beta:LeftHandPinky1
								{
									OFFSET	10.0130	-0.0783	-3.9671
									CHANNELS 3 Zrotation Xrotation Yrotation
									JOINT Beta:LeftHandPinky2
									{
										OFFSET	3.6763	0.0000	0.0000
										CHANNELS 3 Zrotation Xrotation Yrotation
										JOINT Beta:LeftHandPinky3
										{
											OFFSET	2.8113	0.0000	0.0000
											CHANNELS 3 Zrotation Xrotation Yrotation
											End Site
											{
												OFFSET 2.9000 0.0000 0.0000
											}
										}
									}
								}
							}
						}
					}
				}
				JOINT Beta:RightShoulder
				{
					OFFSET	-6.1402	10.1870	-3.7932
					CHANNELS 3 Zrotation Xrotation Yrotation
					JOINT Beta:RightArm
					{
						OFFSET	-12.3231	-1.1130	-1.7935
						CHANNELS 3 Zrotation Xrotation Yrotation
						JOINT Beta:RightForeArm
						{
							OFFSET	-27.6870	0.0000	0.0000
							CHANNELS 3 Xrotation Zrotation Yrotation
							JOINT Beta:RightHand
							{
								OFFSET	-27.8738	0.0000	0.0000
								CHANNELS 3 Zrotation Yrotation Xrotation
								JOINT Beta:RightHandThumb1
								{
									OFFSET	-2.5178	-0.9367	2.5137
									CHANNELS 3 Zrotation Xrotation Yrotation
									JOINT Beta:RightHandThumb2
									{
										OFFSET	-3.2638	-1.0870	2.9669
										CHANNELS 3 Zrotation Xrotation Yrotation
										JOINT Beta:RightHandThumb3
										{
											OFFSET	-4.4165	-1.3703	2.1350
											CHANNELS 3 Zrotation Xrotation Yrotation
											End Site
											{
												OFFSET -2.6000 -1.0000 1.0000
											}
										}
									}
								}
								JOINT Beta:RightHandIndex1
								{
									OFFSET	-10.4665	0.4896	2.7120
									CHANNELS 3 Zrotation Xrotation Yrotation
									JOINT Beta:RightHandIndex2
									{
										OFFSET	-5.3768	0.0000	0.0000
										CHANNELS 3 Zrotation Xrotation Yrotation
										JOINT Beta:RightHandIndex3
										{
											OFFSET	-3.3855	0.0000	0.0000
											CHANNELS 3 Zrotation Xrotation Yrotation
											End Site
											{
												OFFSET -2.6000 0.0000 0.0000
											}
										}
									}
								}
								JOINT Beta:RightHandMiddle1
								{
									OFFSET	-10.7596	0.4896	0.4278
									CHANNELS 3 Zrotation Xrotation Yrotation
									JOINT Beta:RightHandMiddle2
									{
										OFFSET	-5.6168	0.0000	0.0000
										CHANNELS 3 Zrotation Xrotation Yrotation
										JOINT Beta:RightHandMiddle3
										{
											OFFSET	-3.7364	0.0000	0.0000
											CHANNELS 3 Zrotation Xrotation Yrotation
											End Site
											{
												OFFSET -2.3000 0.0000 0.0000
											}
										}
									}
								}
								JOINT Beta:RightHandRing1
								{
									OFFSET	-10.4702	0.3879	-1.9363
									CHANNELS 3 Zrotation Xrotation Yrotation
									JOINT Beta:RightHandRing2
									{
										OFFSET	-5.4013	0.0000	0.0000
										CHANNELS 3 Zrotation Xrotation Yrotation
										JOINT Beta:RightHandRing3
										{
											OFFSET	-3.3916	0.0000	0.0000
											CHANNELS 3 Zrotation Xrotation Yrotation
											End Site
											{
												OFFSET -2.2000 0.0000 0.0000
											}
										}
									}
								}
								JOINT Beta:RightHandPinky1
								{
									OFFSET	-9.9715	-0.1191	-3.9540
									CHANNELS 3 Zrotation Xrotation Yrotation
									JOINT Beta:RightHandPinky2
									{
										OFFSET	-3.6528	0.0000	0.0000
										CHANNELS 3 Zrotation Xrotation Yrotation
										JOINT Beta:RightHandPinky3
										{
											OFFSET	-2.7820	0.0000	0.0000
											CHANNELS 3 Zrotation Xrotation Yrotation
											End Site
											{
												OFFSET -2.9000 0.0000 0.0000
											}
										}
									}
								}
							}
						}
					}
				}
			}
		}
	}
	JOINT Beta:LeftUpLeg
	{
		OFFSET	9.6338	-3.2733	0.0000
		CHANNELS 3 Xrotation Yrotation Zrotation
		JOINT Beta:LeftLeg
		{
			OFFSET	0.0000	-41.7300	-1.7300
			CHANNELS 3 Xrotation Yrotation Zrotation
			JOINT Beta:LeftFoot
			{
				OFFSET	0.0126	-39.1900	-0.8477
				CHANNELS 3 Xrotation Yrotation Zrotation
				JOINT Beta:LeftToeBase
				{
					OFFSET	-0.1833	-12.1931	8.2823
					CHANNELS 3 Xrotation Yrotation Zrotation
					End Site
					{
						OFFSET 0.0000 0.0000 10.1681
					}
				}
			}
		}
	}
	JOINT Beta:RightUpLeg
	{
		OFFSET	-9.6338	-3.2733	0.0000
		CHANNELS 3 Xrotation Yrotation Zrotation
		JOINT Beta:RightLeg
		{
			OFFSET	0.0000	-41.7300	-1.7300
			CHANNELS 3 Xrotation Yrotation Zrotation
			JOINT Beta:RightFoot
			{
				OFFSET	0.0126	-39.1900	-0.8477
				CHANNELS 3 Xrotation Yrotation Zrotation
				JOINT Beta:RightToeBase
				{
					OFFSET	-0.1833	-12.1931	8.2823
					CHANNELS 3 Xrotation Yrotation Zrotation
					End Site
					{
						OFFSET 0.0032 0.0000 10.1681
					}
				}
			}
		}
	}
}
MOTION
Frames: 4
Frame Time: 0.0333333
-0.0000 95.7681 0.0000 -5.2411 -3.7381 -3.0090 3.3079 1.5309 2.3242 1.1519 0.3395 1.5528 1.1260 0.3615 1.5559 5.6263 -0.0790 0.4547 -0.0000 0.0000 -0.0000 -7.5633 1.3757 -0.0806 -11.7848 4.6941 -16.8493 -69.8727 20.0976 -3.2887 0.0000 -0.0000 -1.4594 -8.5115 -3.9540 -26.8291 -1.2620 4.7859 8.5754 14.3745 8.6022 13.9491 -4.3898 -7.3978 1.1522 -12.5290 -0.0000 -1.3262 -17.4911 -0.0000 0.0000 -18.5032 0.0000 -0.0000 -4.0791 0.4326 -4.0627 -17.4612 -0.0000 -0.0000 -8.0795 -0.0000 0.0000 -18.0279 0.0000 -0.8904 -21.0119 0.0000 0.0000 -17.9526 -0.0000 -0.0000 -24.1385 -0.0457 0.5632 -17.4915 -0.0000 0.0000 -16.5876 0.0000 -0.0000 14.2263 5.0180 14.5673 61.3312 30.2135 2.5703 0.0000 0.0000 6.6937 9.6610 0.3539 -15.3862 1.2621 4.7859 -8.5754 -12.8165 8.9378 -16.2599 0.8031 -9.7624 4.0711 4.0791 0.4326 4.0628 17.4612 -0.0000 -0.0000 8.0795 0.0000 -0.0000 12.5290 0.0000 1.3262 17.4911 -0.0000 -0.0000 18.5032 0.0000 0.0000 18.0279 -0.0000 0.8904 21.0119 0.0000 -0.0000 17.9526 0.0000 0.0000 24.1385 -0.0457 -0.5632 17.4915 -0.0000 -0.0000 16.5876 -0.0000 0.0000 -11.2443 14.6550 10.3491 13.9608 2.0225 4.2069 0.0621 0.6161 -7.4841 -4.9285 0.0000 0.0000 2.7936 -10.2869 3.6703 4.0001 -9.7335 -3.2750 -2.5686 -1.5832 2.8287 -7.2829 0.0000 0.0000 
0.2038 95.7761 -0.0880 -5.9249 -3.1896 -2.9480 3.3688 1.7452 2.3940 1.1796 0.4046 1.5736 1.1536 0.4266 1.5769 5.4297 -0.0788 0.3734 -0.0000 0.0000 -0.0000 -8.0932 1.5001 -0.3877 -11.6019 4.7524 -16.9185 -68.7628 21.0443 -4.4753 0.0000 -0.0000 -1.5947 -8.6281 -3.5937 -26.7048 -1.2620 4.7859 8.5754 14.2202 8.8727 14.0723 -4.4603 -7.3576 1.0702 -12.9356 0.0000 -1.2687 -17.4413 -0.0000 0.0000 -18.4531 0.0000 -0.0000 -4.7050 0.5068 -3.8994 -17.4676 0.0000 0.0000 -8.0860 0.0000 -0.0000 -18.3675 -0.0000 -0.9160 -21.0374 -0.0000 0.0000 -17.9782 0.0000 -0.0000 -24.3686 -0.0485 0.4290 -17.5233 0.0000 -0.0000 -16.6194 0.0000 0.0000 14.2170 4.9835 14.5591 60.1874 29.4468 2.4605 -0.0000 0.0000 8.9133 7.3718 -0.3006 -15.1619 1.2620 4.7860 -8.5754 -13.0640 8.8911 -15.4779 0.7174 -9.7623 4.0849 4.6456 0.3941 4.1322 17.5262 0.0000 -0.0000 8.1440 0.0000 -0.0000 13.0567 0.0000 1.4219 17.5369 0.0000 -0.0000 18.5495 0.0000 -0.0000 18.5152 0.0000 1.0541 21.0606 0.0000 -0.0000 18.0013 -0.0000 0.0000 24.6924 -0.1067 -0.2784 17.3372 0.0000 -0.0000 16.4315 -0.0000 -0.0000 -11.9132 15.1203 10.5810 14.1956 2.1427 3.6637 -0.0849 0.6416 -7.0853 -4.9285 0.0000 -0.0000 1.6859 -10.2872 3.3446 4.6960 -9.8071 -3.1976 -2.7288 -0.8912 2.9468 -7.2867 -0.0000 -0.0000 
0.4999 95.8086 -0.2051 -6.8097 -2.5058 -2.8689 3.5042 1.8643 2.4769 1.2342 0.4272 1.6008 1.2081 0.4492 1.6044 5.2219 -0.0271 0.3429 -0.0000 0.0000 -0.0000 -8.6578 1.8737 -0.7204 -11.2429 4.7793 -16.9261 -67.6807 21.8981 -5.6789 0.0000 -0.0000 -1.6787 -8.3843 -3.1461 -27.0606 -1.2621 4.7859 8.5754 13.9972 9.1773 14.4277 -4.2238 -7.3862 0.7579 -13.6587 0.0000 -1.1684 -17.3990 0.0000 0.0000 -18.4106 -0.0000 0.0000 -5.7363 0.6383 -3.6108 -17.4682 -0.0000 -0.0000 -8.0865 -0.0000 -0.0000 -18.9671 -0.0000 -0.9239 -21.0889 -0.0000 -0.0000 -18.0301 0.0000 0.0000 -24.7901 -0.0585 0.2032 -17.6074 0.0000 -0.0000 -16.7034 -0.0000 0.0000 14.1284 4.9358 14.5412 58.9304 28.4221 2.1787 -0.0000 0.0000 11.8020 4.3560 -0.7264 -14.9215 1.2620 4.7859 -8.5754 -13.3110 8.8336 -14.5991 0.6190 -9.7623 4.1002 5.6207 0.3556 4.2302 17.5473 -0.0000 -0.0000 8.1664 0.0000 0.0000 13.8845 0.0000 1.5708 17.5893 0.0000 -0.0000 18.6028 0.0000 0.0000 19.2327 -0.0000 1.3368 21.1712 -0.0000 -0.0000 18.1125 0.0000 -0.0000 25.5276 -0.2073 0.1909 17.2829 0.0000 0.0000 16.3734 -0.0000 -0.0000 -12.5303 15.5158 10.6611 14.1452 2.5983 3.1727 -0.0971 0.6391 -6.6774 -4.9285 0.0000 0.0000 0.8018 -10.1891 3.0294 4.4980 -9.7710 -3.1485 -2.3605 -0.1562 3.0374 -7.2972 0.0000 0.0000 
0.8908 95.8481 -0.3758 -7.9167 -1.6214 -2.7713 3.7012 1.8504 2.5594 1.3129 0.3943 1.6324 1.2868 0.4162 1.6369 5.0171 0.0857 0.4016 -0.0000 0.0000 -0.0000 -9.2671 2.5576 -1.0653 -10.6882 4.7703 -16.8531 -66.6403 22.6519 -6.8232 -0.0000 0.0000 -1.8359 -7.5124 -2.4588 -27.6075 -1.2621 4.7859 8.5754 13.8464 9.5336 14.8611 -3.9999 -7.3655 0.5678 -14.2373 0.0000 -1.0956 -17.3861 -0.0000 -0.0000 -18.3975 0.0000 0.0000 -6.6384 0.7556 -3.3535 -17.4563 -0.0000 0.0000 -8.0747 0.0000 -0.0000 -19.4995 -0.0000 -0.8777 -21.1512 0.0000 -0.0000 -18.0922 0.0000 0.0000 -25.0803 -0.0702 0.0031 -17.6816 0.0000 0.0000 -16.7778 -0.0000 0.0000 13.9962 4.8852 14.5690 57.5261 27.2216 1.8026 0.0000 -0.0000 15.0343 0.7719 -0.9130 -14.9076 1.2620 4.7859 -8.5754 -13.4052 8.7870 -13.9182 0.5363 -9.7622 4.1202 6.6065 0.3186 4.3170 17.5778 -0.0000 -0.0000 8.1983 0.0000 0.0000 14.5607 0.0000 1.6311 17.6854 -0.0000 0.0000 18.6995 0.0000 0.0000 19.8946 0.0000 1.6048 21.3928 -0.0000 -0.0000 18.3349 0.0000 0.0000 26.3352 -0.3167 0.7010 17.3632 -0.0000 -0.0000 16.4489 -0.0000 -0.0000 -13.2693 15.7955 10.6126 14.0059 3.4376 2.7250 -0.0564 0.6130 -6.2579 -4.9285 0.0000 0.0000 -0.3254 -9.8880 2.6301 4.2141 -8.9938 -3.0257 -1.8300 -0.1393 3.0784 -7.3124 -0.0000 0.0000 
